<?xml version="1.0" encoding="UTF-8" standalone="no"?>
<svg 
	 xmlns:svg="http://www.w3.org/2000/svg"
	 xmlns="http://www.w3.org/2000/svg"
	 xmlns:xlink="http://www.w3.org/1999/xlink"
	 version="1.1"
	 id="Layer_1"
	 x="0px"
	 y="0px"
	 width="3456px"
	 height="6912px"
	 viewBox="0 0 3456 6912"
	 enable-background="new 0 0 3456 6912"
	 xml:space="preserve" >
	 <metadata id="metadata1546"></metadata>
	 <defs id="defs1544"></defs>
	 />
<polygon
points="0,0 1125,0 1124,0 1123,0 1122,1 1120,1 1119,2 1117,2 1116,2 1115,3 1113,3 1112,4 1111,4 1110,4 1108,4 1107,5 1106,5 1105,5 1104,5 1102,6 1101,6 1099,7 1098,7 1097,7 1095,8 1094,8 1088,10 1086,10 1037,23 1036,24 1027,26 1024,27 1017,29 1016,29 1014,29 1013,30 1013,30 1007,32 1006,32 1004,33 1003,33 1000,34 998,35 995,35 987,39 986,39 979,41 978,42 977,43 975,43 974,44 973,44 971,45 970,45 968,46 967,47 965,48 964,48 962,49 961,50 959,51 958,51 956,52 955,53 953,53 952,54 950,55 948,56 947,56 946,57 944,58 943,58 942,59 941,60 940,60 939,61 938,62 937,62 935,63 934,64 933,64 932,65 931,66 930,67 929,68 928,69 927,70 924,75 923,76 922,77 921,78 920,79 918,79 917,80 916,80 915,81 913,81 912,82 906,83 905,83 900,88 898,89 898,90 897,91 895,92 895,92 894,93 891,96 890,97 885,101 884,102 883,103 882,104 882,105 881,106 880,107 879,107 878,108 877,109 876,110 875,111 874,112 873,113 872,114 871,115 871,116 870,117 869,118 868,119 867,120 866,121 865,122 865,123 863,124 863,125 862,126 861,127 860,128 859,129 858,130 858,131 857,132 856,133 855,133 854,135 853,135 852,136 852,137 843,148 842,149 819,177 817,180 816,180 815,181 815,183 814,184 813,184 812,186 811,187 810,188 810,189 809,190 808,191 807,192 807,193 806,194 805,195 804,196 803,197 802,198 799,202 797,205 796,206 763,250 763,251 725,304 724,306 719,313 718,314 696,348 676,380 668,391 666,396 665,397 664,399 664,400 663,401 662,402 661,403 661,405 660,406 659,407 659,408 658,409 657,410 657,411 656,413 655,414 654,415 654,416 653,418 652,419 652,420 651,421 650,422 650,423 649,424 648,425 648,427 647,428 646,429 646,430 645,431 641,437 640,440 639,441 638,442 638,443 637,444 637,445 636,447 633,452 631,454 617,480 616,482 612,493 612,494 612,495 612,496 612,500 611,501 605,510 605,511 603,512 602,512 601,513 600,514 548,611 547,612 534,640 533,641 533,642 528,654 527,655 526,656 526,657 525,658 525,660 524,661 524,661 524,663 523,664 523,665 521,668 521,669 520,670 520,671 519,672 519,673 518,674 518,676 517,677 517,678 516,679 516,681 515,682 515,683 514,683 514,684 514,685 513,687 513,688 512,689 512,690 511,692 510,693 510,694 509,695 505,705 504,706 470,797 468,800 467,805 466,807 466,809 465,810 465,811 464,813 463,814 463,815 463,816 462,817 462,818 461,819 461,821 461,822 460,823 460,825 458,830 457,831 456,832 455,833 452,835 450,836 449,836 448,837 447,837 445,839 445,838 446,837 445,836 445,835 444,835 443,834 442,834 440,834 438,834 437,834 435,834 433,834 431,834 429,834 427,834 425,834 423,834 421,834 418,834 416,834 414,834 413,833 411,833 410,832 408,831 408,830 407,828 406,827 406,825 406,823 406,821 405,820 406,818 405,816 405,815 406,812 406,811 406,809 406,807 407,789 407,788 407,786 407,784 407,783 407,782 407,781 407,779 407,778 407,776 407,771 407,770 410,681 410,680 410,679 410,677 410,676 410,674 410,672 410,668 410,663 410,662 410,615 410,614 410,568 410,564 410,562 410,561 409,531 409,530 409,528 409,527 409,526 409,525 404,499 404,497 404,496 404,494 404,493 404,491 404,490 404,488 406,462 406,460 405,434 405,424 394,307 393,305 393,297 392,296 392,295 392,294 392,292 392,291 391,288 392,286 391,285 391,284 391,283 391,282 391,280 391,279 390,278 390,276 390,275 390,272 390,271 390,270 390,269 389,267 389,266 389,265 388,259 385,241 385,240 384,233 384,232 384,231 383,229 383,228 383,226 382,224 382,223 381,222 381,220 381,219 381,218 380,217 381,215 380,214 380,213 380,212 379,210 379,209 378,208 378,206 378,205 377,203 377,202 377,201 377,200 376,198 376,197 375,196 375,194 375,193 374,192 374,190 373,189 373,188 372,187 372,186 372,185 371,184 371,182 370,181 370,180 369,179 369,178 368,177 368,176 367,175 366,174 366,173 365,171 365,170 365,169 364,168 364,167 363,166 363,165 360,161 358,157 356,153 355,153 354,152 354,150 353,149 352,148 351,147 350,146 350,145 349,144 348,143 347,142 346,141 346,140 345,139 344,138 343,137 342,136 341,135 340,134 339,133 338,132 337,131 337,130 335,129 335,129 334,127 333,127 332,126 331,125 330,124 329,123 328,122 327,121 326,120 325,120 324,119 323,118 322,117 321,116 320,115 319,114 319,114 317,113 317,112 315,111 314,110 313,110 312,109 311,108 310,107 309,106 308,105 307,104 306,104 305,103 304,102 303,102 302,102 301,101 298,101 296,101 285,94 285,93 284,92 282,92 282,91 281,90 279,89 278,88 278,88 277,87 276,87 275,86 274,86 272,85 271,85 270,84 268,83 267,83 267,82 265,82 264,82 263,81 262,81 261,81 259,80 258,79 256,79 255,78 254,77 252,77 251,76 250,76 249,75 247,75 246,74 245,74 244,73 242,73 241,72 240,72 239,71 235,70 233,69 227,66 224,65 223,65 221,64 211,61 210,60 128,35 127,34"
id="3v0_831_312_odpad_2"
/>
</svg>