<svg xmlns="http://www.w3.org/2000/svg" width="27.5in" height="22.57291666666667in" viewBox="0 0 1980 1625.2500000000002"><g/><g/><g/><g/><g/><g/><g/><g/><g/><g/><g/><g/><g/><g/><g/><g/><g/><g/><g/><g/><g/><g/><g/><g/><g/><g/><g/><g/><g/><g/><g/><g/><g/><g/><g/><g/><g/><g/><g/><g/><g/><image overflow="visible" enable-background="new    " width="439" height="155" xmlns:xlink="http://www.w3.org/1999/xlink" xlink:href="text.png" transform="  translate(-178.5 -162) translate(2920.6943233381335 -132.64648360639103) rotate(90)   scale(0.75) matrix(1.0002 0 0 1.0002 392.5669 3466.8115)" href="/Users/work/projects/Deepnest/samples/text.png" data-href="text.png"/><image overflow="visible" enable-background="new    " width="439" height="155" xmlns:xlink="http://www.w3.org/1999/xlink" xlink:href="text.png" transform="  translate(-178.5 -162) translate(-1820.1464767999998 -2080.5733635) rotate(0)   scale(0.75) matrix(1.0002 0 0 1.0002 2664.5664 3466.8115)" href="/Users/work/projects/Deepnest/samples/text.png" data-href="text.png"/><image overflow="visible" enable-background="new    " width="439" height="155" xmlns:xlink="http://www.w3.org/1999/xlink" xlink:href="text.png" transform="  translate(-178.5 -162) translate(2509.3247169 -132.64648130000012) rotate(90)   scale(0.75) matrix(1.0002 0 0 1.0002 392.5669 2614.9814)" href="/Users/work/projects/Deepnest/samples/text.png" data-href="text.png"/><image overflow="visible" enable-background="new    " width="439" height="155" xmlns:xlink="http://www.w3.org/1999/xlink" xlink:href="text.png" transform="  translate(-178.5 -162) translate(-1346.8376366999996 2485.0265865) rotate(270)   scale(0.75) matrix(1.0002 0 0 1.0002 2664.5664 2614.9814)" href="/Users/work/projects/Deepnest/samples/text.png" data-href="text.png"/><image overflow="visible" enable-background="new    " width="439" height="155" xmlns:xlink="http://www.w3.org/1999/xlink" xlink:href="text.png" transform="  translate(-178.5 -162) translate(-2064.0734787999995 3640.0916027000003) rotate(270)   scale(0.75) matrix(1.0002 0 0 1.0002 3778.3584 3466.8115)" href="/Users/work/projects/Deepnest/samples/text.png" data-href="text.png"/><image overflow="visible" enable-background="new    " width="439" height="155" xmlns:xlink="http://www.w3.org/1999/xlink" xlink:href="text.png" transform="  translate(-178.5 -162) translate(-1569.396721 1088.9856644000006) rotate(270)   scale(0.75) matrix(1.0002 0 0 1.0002 392.5669 3040.8965)" href="/Users/work/projects/Deepnest/samples/text.png" data-href="text.png"/><image overflow="visible" enable-background="new    " width="439" height="155" xmlns:xlink="http://www.w3.org/1999/xlink" xlink:href="text.png" transform="  translate(-178.5 -162) translate(2501.5265991 3084.3790289999997) rotate(180)   scale(0.75) matrix(1.0002 0 0 1.0002 2664.5664 3040.8965)" href="/Users/work/projects/Deepnest/samples/text.png" data-href="text.png"/><image overflow="visible" enable-background="new    " width="439" height="155" xmlns:xlink="http://www.w3.org/1999/xlink" xlink:href="text.png" transform="  translate(-178.5 -162) translate(-2403.6164413 -1121.9800526000001) rotate(0)   scale(0.75) matrix(1.0002 0 0 1.0002 3778.3584 2614.9814)" href="/Users/work/projects/Deepnest/samples/text.png" data-href="text.png"/><image overflow="visible" enable-background="new    " width="439" height="155" xmlns:xlink="http://www.w3.org/1999/xlink" xlink:href="text.png" transform="  translate(-178.5 -162) translate(3512.1723335 -967.9904841000003) rotate(90)   scale(0.75) matrix(1.0002 0 0 1.0002 1506.3584 3466.8115)" href="/Users/work/projects/Deepnest/samples/text.png" data-href="text.png"/><image overflow="visible" enable-background="new    " width="439" height="155" xmlns:xlink="http://www.w3.org/1999/xlink" xlink:href="text.png" transform="  translate(-178.5 -162) translate(2209.1236710000003 2897.6609572999996) rotate(180)   scale(0.75) matrix(1.0002 0 0 1.0002 1506.3584 2614.9814)" href="/Users/work/projects/Deepnest/samples/text.png" data-href="text.png"/><image overflow="visible" enable-background="new    " width="439" height="155" xmlns:xlink="http://www.w3.org/1999/xlink" xlink:href="text.png" transform="  translate(-178.5 -162) translate(558.7148511999999 -2582.2282028) rotate(0)   scale(0.75) matrix(1.0002 0 0 1.0002 392.5669 4312.6416)" href="/Users/work/projects/Deepnest/samples/text.png" data-href="text.png"/><image overflow="visible" enable-background="new    " width="439" height="155" xmlns:xlink="http://www.w3.org/1999/xlink" xlink:href="text.png" transform="  translate(-178.5 -162) translate(-2256.1084281999997 2485.0265844) rotate(270)   scale(0.75) matrix(1.0002 0 0 1.0002 2664.5664 4312.6416)" href="/Users/work/projects/Deepnest/samples/text.png" data-href="text.png"/><image overflow="visible" enable-background="new    " width="439" height="155" xmlns:xlink="http://www.w3.org/1999/xlink" xlink:href="text.png" transform="  translate(-178.5 -162) translate(3543.2170112000003 -2671.9904742) rotate(90)   scale(0.75) matrix(1.0002 0 0 1.0002 3778.3584 3040.8965)" href="/Users/work/projects/Deepnest/samples/text.png" data-href="text.png"/><image overflow="visible" enable-background="new    " width="439" height="155" xmlns:xlink="http://www.w3.org/1999/xlink" xlink:href="text.png" transform="  translate(-178.5 -162) translate(-50.85728600000016 -1456.1050617) rotate(0)   scale(0.75) matrix(1.0002 0 0 1.0002 1506.3584 3040.8965)" href="/Users/work/projects/Deepnest/samples/text.png" data-href="text.png"/><image overflow="visible" enable-background="new    " width="439" height="155" xmlns:xlink="http://www.w3.org/1999/xlink" xlink:href="text.png" transform="  translate(-178.5 -162) translate(4596.8288272 -2366.9576008000004) rotate(90)   scale(0.75) matrix(1.0002 0 0 1.0002 3778.3584 4312.6416)" href="/Users/work/projects/Deepnest/samples/text.png" data-href="text.png"/><image overflow="visible" enable-background="new    " width="439" height="155" xmlns:xlink="http://www.w3.org/1999/xlink" xlink:href="text.png" transform="  translate(-178.5 -162) translate(-1574.8078722000002 781.0267020000006) rotate(270)   scale(0.75) matrix(1.0002 0 0 1.0002 392.5669 3892.7266)" href="/Users/work/projects/Deepnest/samples/text.png" data-href="text.png"/><image overflow="visible" enable-background="new    " width="439" height="155" xmlns:xlink="http://www.w3.org/1999/xlink" xlink:href="text.png" transform="  translate(-178.5 -162) translate(4457.132294 -1516.5629990999998) rotate(90)   scale(0.75) matrix(1.0002 0 0 1.0002 2664.5664 3892.7266)" href="/Users/work/projects/Deepnest/samples/text.png" data-href="text.png"/><image overflow="visible" enable-background="new    " width="439" height="155" xmlns:xlink="http://www.w3.org/1999/xlink" xlink:href="text.png" transform="  translate(-178.5 -162) translate(2857.8827042000003 4183.030995) rotate(180)   scale(0.75) matrix(1.0002 0 0 1.0002 1506.3584 4312.6416)" href="/Users/work/projects/Deepnest/samples/text.png" data-href="text.png"/><image overflow="visible" enable-background="new    " width="439" height="155" xmlns:xlink="http://www.w3.org/1999/xlink" xlink:href="text.png" transform="  translate(-178.5 -162) translate(4548.4533582 -2658.6706602) rotate(90)   scale(0.75) matrix(1.0002 0 0 1.0002 3778.3584 3892.7266)" href="/Users/work/projects/Deepnest/samples/text.png" data-href="text.png"/><image overflow="visible" enable-background="new    " width="439" height="155" xmlns:xlink="http://www.w3.org/1999/xlink" xlink:href="text.png" transform="  translate(-178.5 -162) translate(3025.111664100001 3692.8542372) rotate(180)   scale(0.75) matrix(1.0002 0 0 1.0002 1506.3584 3892.7266)" href="/Users/work/projects/Deepnest/samples/text.png" data-href="text.png"/><image overflow="visible" enable-background="new    " width="511" height="511" xmlns:xlink="http://www.w3.org/1999/xlink" xlink:href="logo.png" transform="  translate(-178.5 -162) translate(2635.5064303000004 2551.1381727999997) rotate(180)   scale(0.75) matrix(0.48 0 0 0.48 1048.2539 2588.4609)" href="/Users/work/projects/Deepnest/samples/logo.png" data-href="logo.png"/><image overflow="visible" enable-background="new    " width="511" height="511" xmlns:xlink="http://www.w3.org/1999/xlink" xlink:href="logo.png" transform="  translate(-178.5 -162) translate(2653.6287732 2643.7678115000003) rotate(180)   scale(0.75) matrix(0.48 0 0 0.48 1048.2539 3014.376)" href="/Users/work/projects/Deepnest/samples/logo.png" data-href="logo.png"/><image overflow="visible" enable-background="new    " width="511" height="511" xmlns:xlink="http://www.w3.org/1999/xlink" xlink:href="logo.png" transform="  translate(-178.5 -162) translate(-1049.5318906000002 1746.3965956000006) rotate(270)   scale(0.75) matrix(0.48 0 0 0.48 1048.2539 3866.2061)" href="/Users/work/projects/Deepnest/samples/logo.png" data-href="logo.png"/><image overflow="visible" enable-background="new    " width="511" height="511" xmlns:xlink="http://www.w3.org/1999/xlink" xlink:href="logo.png" transform="  translate(-178.5 -162) translate(2851.9183098000003 3085.6685826000003) rotate(180)   scale(0.75) matrix(0.48 0 0 0.48 1048.2539 3440.291)" href="/Users/work/projects/Deepnest/samples/logo.png" data-href="logo.png"/><image overflow="visible" enable-background="new    " width="511" height="511" xmlns:xlink="http://www.w3.org/1999/xlink" xlink:href="logo.png" transform="  translate(-178.5 -162) translate(4041.8423769999995 -1941.8778040999998) rotate(90)   scale(0.75) matrix(0.48 0 0 0.48 3320.2539 2588.4609)" href="/Users/work/projects/Deepnest/samples/logo.png" data-href="logo.png"/><image overflow="visible" enable-background="new    " width="511" height="511" xmlns:xlink="http://www.w3.org/1999/xlink" xlink:href="logo.png" transform="  translate(-178.5 -162) translate(-2265.1918808 -1721.9256585000003) rotate(0)   scale(0.75) matrix(0.48 0 0 0.48 3320.2539 3440.291)" href="/Users/work/projects/Deepnest/samples/logo.png" data-href="logo.png"/><image overflow="visible" enable-background="new    " width="511" height="511" xmlns:xlink="http://www.w3.org/1999/xlink" xlink:href="logo.png" transform="  translate(-178.5 -162) translate(4367.8860391 4024.2432363) rotate(180)   scale(0.75) matrix(0.48 0 0 0.48 3320.2539 3866.2061)" href="/Users/work/projects/Deepnest/samples/logo.png" data-href="logo.png"/><image overflow="visible" enable-background="new    " width="511" height="511" xmlns:xlink="http://www.w3.org/1999/xlink" xlink:href="logo.png" transform="  translate(-178.5 -162) translate(-2227.8780631 1956.9346252000005) rotate(270)   scale(0.75) matrix(0.48 0 0 0.48 1048.2539 4286.1211)" href="/Users/work/projects/Deepnest/samples/logo.png" data-href="logo.png"/><image overflow="visible" enable-background="new    " width="511" height="511" xmlns:xlink="http://www.w3.org/1999/xlink" xlink:href="logo.png" transform="  translate(-178.5 -162) translate(3658.2457162 -1502.1062823999998) rotate(90)   scale(0.75) matrix(0.48 0 0 0.48 3320.2539 3014.376)" href="/Users/work/projects/Deepnest/samples/logo.png" data-href="logo.png"/><image overflow="visible" enable-background="new    " width="511" height="511" xmlns:xlink="http://www.w3.org/1999/xlink" xlink:href="logo.png" transform="  translate(-178.5 -162) translate(-2454.684215399999 3665.1456985000004) rotate(270)   scale(0.75) matrix(0.48 0 0 0.48 3320.2539 4286.1211)" href="/Users/work/projects/Deepnest/samples/logo.png" data-href="logo.png"/><image overflow="visible" enable-background="new    " width="511" height="511" xmlns:xlink="http://www.w3.org/1999/xlink" xlink:href="logo.png" transform="  translate(-178.5 -162) translate(3297.2630503 -618.7615468000004) rotate(90)   scale(0.75) matrix(0.48 0 0 0.48 2162.0449 3440.291)" href="/Users/work/projects/Deepnest/samples/logo.png" data-href="logo.png"/><image overflow="visible" enable-background="new    " width="511" height="511" xmlns:xlink="http://www.w3.org/1999/xlink" xlink:href="logo.png" transform="  translate(-178.5 -162) translate(3245.8040658 3447.8613173000003) rotate(180)   scale(0.75) matrix(0.48 0 0 0.48 2162.0449 3014.376)" href="/Users/work/projects/Deepnest/samples/logo.png" data-href="logo.png"/><image overflow="visible" enable-background="new    " width="511" height="511" xmlns:xlink="http://www.w3.org/1999/xlink" xlink:href="logo.png" transform="  translate(-178.5 -162) translate(-979.0966268999998 2808.5464980000006) rotate(270)   scale(0.75) matrix(0.48 0 0 0.48 2162.0449 3866.2061)" href="/Users/work/projects/Deepnest/samples/logo.png" data-href="logo.png"/><image overflow="visible" enable-background="new    " width="511" height="511" xmlns:xlink="http://www.w3.org/1999/xlink" xlink:href="logo.png" transform="  translate(-178.5 -162) translate(2325.2211627999995 -2240.4354241) rotate(90)   scale(0.75) matrix(0.48 0 0 0.48 4434.0449 2588.4609)" href="/Users/work/projects/Deepnest/samples/logo.png" data-href="logo.png"/><image overflow="visible" enable-background="new    " width="511" height="511" xmlns:xlink="http://www.w3.org/1999/xlink" xlink:href="logo.png" transform="  translate(-178.5 -162) translate(3403.7620164 3291.2210201999997) rotate(180)   scale(0.75) matrix(0.48 0 0 0.48 2162.0449 2588.4609)" href="/Users/work/projects/Deepnest/samples/logo.png" data-href="logo.png"/><image overflow="visible" enable-background="new    " width="511" height="511" xmlns:xlink="http://www.w3.org/1999/xlink" xlink:href="logo.png" transform="  translate(-178.5 -162) translate(4608.952624400001 3639.5195710999997) rotate(180)   scale(0.75) matrix(0.48 0 0 0.48 4434.0449 3014.376)" href="/Users/work/projects/Deepnest/samples/logo.png" data-href="logo.png"/><image overflow="visible" enable-background="new    " width="511" height="511" xmlns:xlink="http://www.w3.org/1999/xlink" xlink:href="logo.png" transform="  translate(-178.5 -162) translate(3917.1573318000005 3962.2678472999996) rotate(180)   scale(0.75) matrix(0.48 0 0 0.48 4434.0449 3440.291)" href="/Users/work/projects/Deepnest/samples/logo.png" data-href="logo.png"/><image overflow="visible" enable-background="new    " width="511" height="511" xmlns:xlink="http://www.w3.org/1999/xlink" xlink:href="logo.png" transform="  translate(-178.5 -162) translate(4382.1469603000005 4282.6027146999995) rotate(180)   scale(0.75) matrix(0.48 0 0 0.48 4434.0449 3866.2061)" href="/Users/work/projects/Deepnest/samples/logo.png" data-href="logo.png"/><image overflow="visible" enable-background="new    " width="511" height="511" xmlns:xlink="http://www.w3.org/1999/xlink" xlink:href="logo.png" transform="  translate(-178.5 -162) translate(4835.758288500001 4608.3788687999995) rotate(180)   scale(0.75) matrix(0.48 0 0 0.48 4434.0449 4286.1211)" href="/Users/work/projects/Deepnest/samples/logo.png" data-href="logo.png"/><image overflow="visible" enable-background="new    " width="511" height="511" xmlns:xlink="http://www.w3.org/1999/xlink" xlink:href="logo.png" transform="  translate(-178.5 -162) translate(-2568.728527999999 3016.242445900001) rotate(270)   scale(0.75) matrix(0.48 0 0 0.48 2162.0449 4286.1211)" href="/Users/work/projects/Deepnest/samples/logo.png" data-href="logo.png"/><line x1="274.4736328125" x2="324.383544921875" y1="499.6165771484375" y2="449.7166748046875" fill="none" stroke="#000000"/><line x1="324.383544921875" x2="277.403564453125" y1="371.3565673828125" y2="324.3765869140625" fill="none" stroke="#000000"/><line x1="324.37646484375" x2="376.0166015625" y1="592.4714965820312" y2="644.1016235351562" fill="none" stroke="#000000"/><line x1="624.96337890625" x2="546.59326171875" y1="307.95867919921875" y2="307.95867919921875" fill="none" stroke="#000000"/><line x1="324.3765869140625" x2="276.566650390625" y1="547.4290771484375" y2="499.6190185546875" fill="none" stroke="#000000"/><line x1="674.86083984375" x2="722.671875" y1="584.5317993164062" y2="632.3418579101562" fill="none" stroke="#000000"/><line x1="1165.368896484375" x2="1089.56884765625" y1="305.0323791503906" y2="305.0323791503906" fill="none" stroke="#000000"/><line x1="1170.02880859375" x2="1216.998779296875" y1="629.4125366210938" y2="582.4423217773438" fill="none" stroke="#000000"/><line x1="1184.712158203125" x2="1260.51220703125" y1="324.3807067871094" y2="324.3807067871094" fill="none" stroke="#000000"/><line x1="1340.6123046875" x2="1264.812255859375" y1="320.0870361328125" y2="320.0870361328125" fill="none" stroke="#000000"/><line x1="1217.00244140625" x2="1266.90234375" y1="594.55712890625" y2="644.467041015625" fill="none" stroke="#000000"/><line x1="1274.9127197265625" x2="1225.0126953125" y1="644.4609375" y2="694.361083984375" fill="none" stroke="#000000"/><line x1="1392.24169921875" x2="1439.211669921875" y1="597.484130859375" y2="644.46435546875" fill="none" stroke="#000000"/><line x1="1549.9927978515625" x2="1483.562744140625" y1="242.41770935058594" y2="175.98777770996094" fill="none" stroke="#000000"/><line x1="1681.852294921875" x2="1681.852294921875" y1="298.4486083984375" y2="204.5086669921875" fill="none" stroke="#000000"/><line x1="1716.6224365234375" x2="1783.0523681640625" y1="431.3121337890625" y2="364.8822021484375" fill="none" stroke="#000000"/><line x1="185.44801330566406" x2="251.87818908691406" y1="674.8643798828125" y2="741.2943115234375" fill="none" stroke="#000000"/><line x1="1013.5858154296875" x2="1080.0157470703125" y1="871.0836791992188" y2="804.6537475585938" fill="none" stroke="#000000"/><line x1="720.3558349609375" x2="786.7857666015625" y1="807.5756225585938" y2="874.0057983398438" fill="none" stroke="#000000"/><line x1="493.5430908203125" x2="559.9730224609375" y1="819.3384399414062" y2="885.7684936523438" fill="none" stroke="#000000"/><line x1="493.5430908203125" x2="399.6031494140625" y1="1046.1484375" y2="1046.1484375" fill="none" stroke="#000000"/><line x1="1400.7740478515625" x2="1306.8240966796875" y1="1046.51123046875" y2="1046.51123046875" fill="none" stroke="#000000"/><line x1="1240.39404296875" x2="1306.8240966796875" y1="886.13134765625" y2="819.701416015625" fill="none" stroke="#000000"/><line x1="1720.623291015625" x2="1787.05322265625" y1="886.0665283203125" y2="819.636474609375" fill="none" stroke="#000000"/><line x1="1464.781982421875" x2="1558.73193359375" y1="982.5010375976562" y2="982.5010375976562" fill="none" stroke="#000000"/><line x1="965.97265625" x2="1059.922607421875" y1="1011.3596801757812" y2="1011.3596801757812" fill="none" stroke="#000000"/><line x1="274.1773376464844" x2="368.1272888183594" y1="1014.677734375" y2="1014.677734375" fill="none" stroke="#000000"/><line x1="324.3765869140625" y1="623.2291259765625" x2="251.86958134271052" y2="695.735960117506" fill="none" stroke="#000000"/><line x1="251.87355041503906" y1="835.2342529296875" x2="251.87355041503906" y2="695.7399291992188" fill="none" stroke="#000000"/><line x1="900.6336669921875" y1="755.9409790039062" x2="786.7899671716835" y2="869.8067502682475" fill="none" stroke="#000000"/><line x1="1308.322021484375" y1="276.5697021484375" x2="1216.9997328538852" y2="367.89426417131074" fill="none" stroke="#000000"/><line x1="1664.99169921875" y1="644.46435546875" x2="1266.90234375" y2="644.46435546875" fill="none" stroke="#000000"/><line x1="1748.2801353807254" y1="364.88075329470837" x2="1625.8173828125" y2="242.41819763183594" fill="none" stroke="#000000"/><line x1="1643.939697265625" y1="242.41819763183594" x2="1531.8704833984375" y2="242.41819763183594" fill="none" stroke="#000000"/><line x1="1643.939697265625" y1="242.41770935058594" x2="1748.2807278878504" y2="138.0768704629972" fill="none" stroke="#000000"/><line x1="1716.6180419921875" y1="819.6376342773438" x2="1881.00341796875" y2="819.6376342773438" fill="none" stroke="#000000"/><line x1="1748.2823486328125" y1="364.8785400390625" x2="1877.00244140625" y2="364.8785400390625" fill="none" stroke="#000000"/><line x1="1720.6259765625" y1="980.0164794921875" x2="1720.6259765625" y2="823.6431274414062" fill="none" stroke="#000000"/><line x1="899.5454539083519" y1="1077.7922800752117" x2="1013.5919189453125" y2="963.74560546875" fill="none" stroke="#000000"/><line x1="786.7818603515625" y1="869.7986450195312" x2="786.7818603515625" y2="967.9557495117188" fill="none" stroke="#000000"/><line x1="1013.5858154296875" y1="965.0336303710938" x2="1126.3469820377666" y2="1077.7951077906664" fill="none" stroke="#000000"/><line x1="672.7380589852016" y1="1082.0035619139717" x2="786.7857666015625" y2="967.9557495117188" fill="none" stroke="#000000"/><line x1="445.93025868898036" y1="1093.7613133775258" x2="559.9730224609375" y2="979.7184448242188" fill="none" stroke="#000000"/><line x1="1240.39404296875" y1="980.081298828125" x2="1353.1550108329538" y2="1092.8420594854124" fill="none" stroke="#000000"/><line x1="1126.3525390625" y1="1186.788818359375" x2="1126.3525390625" y2="1077.78955078125" fill="none" stroke="#000000"/><line x1="899.542724609375" y1="1077.78955078125" x2="899.542724609375" y2="1175.9527587890625" fill="none" stroke="#000000"/><line x1="672.737060546875" y1="1082.0025634765625" x2="672.737060546875" y2="1187.71240234375" fill="none" stroke="#000000"/><path d="M 128.26438903808594 324.3804931640625 L 175.24436950683594 277.404541015625 L 175.24436950683594 277.404541015625 L 175.24436950683594 51.63250732421875 L 175.24436950683594 51.63250732421875 L 123.60423278808594 -0.0004875126469414686 L 123.60423278808594 -0.0004875126469414686 L 47.8044319152832 -0.0004875126469414686 L 47.8044319152832 -0.0004875126469414686 L 0.004381931852549319 47.810516357421875 L 0.004381931852549319 47.810516357421875 L 0.004381931852549319 274.478515625 L 0.004381931852549319 274.478515625 L 49.9042854309082 324.3804931640625 L 49.9042854309082 324.3804931640625 L 277.403564453125 324.3804931640625" fill="none" stroke="#000000"/><path d="M 51.63355255126953 324.3765869140625 L 0.003547613974660635 376.0167236328125 L 0.003547613974660635 376.0167236328125 L 0.003547613974660635 451.8165283203125 L 0.003547613974660635 451.8165283203125 L 47.81348419189453 499.6165771484375 L 47.81348419189453 499.6165771484375 L 276.566650390625 499.6165771484375" fill="none" stroke="#000000"/><path d="M 402.7447509765625 51.632511138916016 L 351.104736328125 -0.00048520625568926334 L 351.104736328125 -0.00048520625568926334 L 275.314697265625 -0.00048520625568926334 L 275.314697265625 -0.00048520625568926334 L 227.50465393066406 47.81052017211914 L 227.50465393066406 47.81052017211914 L 227.50465393066406 274.478515625 L 227.50465393066406 274.478515625 L 277.40478515625 324.3804931640625 L 277.40478515625 324.3804931640625 L 355.7646484375 324.3804931640625 L 355.7646484375 324.3804931640625 L 402.7447509765625 277.404541015625 L 402.7447509765625 277.404541015625 L 402.7447509765625 46.97653579711914" fill="none" stroke="#000000"/><path d="M 402.7423095703125 272.7465515136719 L 454.38232421875 324.3765563964844 L 454.38232421875 324.3765563964844 L 530.17236328125 324.3765563964844" fill="none" stroke="#000000"/><path d="M 402.7423095703125 46.97653579711914 L 449.722412109375 -0.003442796878516675 L 449.722412109375 -0.003442796878516675 L 528.082275390625 -0.003442796878516675 L 528.082275390625 -0.003442796878516675 L 577.982421875 49.90646743774414 L 577.982421875 49.90646743774414 L 577.982421875 276.5666198730469 L 577.982421875 276.5666198730469 L 499.6187506733721 354.9300909938108" fill="none" stroke="#000000"/><path d="M 451.81640625 644.1016235351562 L 499.616455078125 596.2915649414062 L 499.616455078125 596.2915649414062 L 499.616455078125 354.93463134765625" fill="none" stroke="#000000"/><path d="M 499.616455078125 369.62164306640625 L 449.716552734375 319.72149658203125 L 449.716552734375 319.72149658203125 L 371.3564453125 319.72149658203125 L 371.3564453125 319.72149658203125 L 324.37646484375 366.69171142578125 L 324.37646484375 366.69171142578125 L 324.37646484375 623.2291259765625" fill="none" stroke="#000000"/><path d="M 499.623291015625 580.7066650390625 L 551.253173828125 632.3396606445312 L 551.253173828125 632.3396606445312 L 627.05322265625 632.3396606445312 L 627.05322265625 632.3396606445312 L 674.86328125 584.5286865234375" fill="none" stroke="#000000"/><path d="M 272.74658203125 674.8590087890625 L 46.9765510559082 674.8590087890625 L 46.9765510559082 674.8590087890625 L -0.0034301967825740576 627.8890380859375 L -0.0034301967825740576 627.8890380859375 L -0.0034301967825740576 549.5189208984375 L -0.0034301967825740576 549.5189208984375 L 49.9064826965332 499.6190185546875" fill="none" stroke="#000000"/><path d="M 303.503662109375 644.0999145507812 L 529.283447265625 644.0999145507812 L 529.283447265625 644.0999145507812 L 576.253662109375 691.0800170898438" fill="none" stroke="#000000"/><path d="M 251.87355041503906 771.5299682617188 L 299.68359375 819.3400268554688 L 299.68359375 819.3400268554688 L 526.353515625 819.3400268554688 L 526.353515625 819.3400268554688 L 576.253662109375 769.4398803710938 L 576.253662109375 769.4398803710938 L 576.253662109375 682.2410278320312 L 576.253662109375 682.2410278320312 L 626.1536865234375 632.3408813476562 L 626.1536865234375 632.3408813476562 L 949.33984375 632.3408813476562" fill="none" stroke="#000000"/><path d="M 766.722412109375 51.629512786865234 L 715.082275390625 -0.0004938656347803771 L 715.082275390625 -0.0004938656347803771 L 639.282470703125 -0.0004938656347803771 L 639.282470703125 -0.0004938656347803771 L 591.482421875 47.809566497802734 L 591.482421875 47.809566497802734 L 591.482421875 274.4794921875" fill="none" stroke="#000000"/><path d="M 641.38232421875 324.3795166015625 L 719.742431640625 324.3795166015625 L 719.742431640625 324.3795166015625 L 766.722412109375 277.4095458984375 L 766.722412109375 277.4095458984375 L 766.722412109375 46.97653579711914" fill="none" stroke="#000000"/><path d="M 849.003662109375 807.5809936523438 L 623.2236328125 807.5809936523438 L 623.2236328125 807.5809936523438 L 576.253662109375 760.6008911132812" fill="none" stroke="#000000"/><path d="M 852.8236083984375 632.3408813476562 L 900.6336669921875 680.1509399414062 L 900.6336669921875 680.1509399414062 L 900.6336669921875 756.8449096679688" fill="none" stroke="#000000"/><path d="M 674.86083984375 508.73175048828125 L 726.4938354492188 457.10186767578125 L 726.4938354492188 457.10186767578125 L 952.265869140625 457.10186767578125 L 952.265869140625 457.10186767578125 L 999.2418212890625 504.07183837890625 L 999.2418212890625 504.07183837890625 L 999.2418212890625 582.4417114257812 L 999.2418212890625 582.4417114257812 L 900.633872018515 681.046042472029" fill="none" stroke="#000000"/><path d="M 766.7216796875 272.7465515136719 L 818.3515625 324.3765563964844 L 818.3515625 324.3765563964844 L 894.151611328125 324.3765563964844 L 894.151611328125 324.3765563964844 L 941.961669921875 276.5666198730469 L 941.961669921875 276.5666198730469 L 941.961669921875 47.809574127197266" fill="none" stroke="#000000"/><path d="M 941.961669921875 49.90646743774414 L 892.0615234375 -0.0034448967780917883 L 892.0615234375 -0.0034448967780917883 L 813.691650390625 -0.0034448967780917883 L 813.691650390625 -0.0034448967780917883 L 766.7216796875 46.97653579711914" fill="none" stroke="#000000"/><path d="M 941.95703125 47.809574127197266 L 989.76708984375 -0.0004839656176045539 L 989.76708984375 -0.0004839656176045539 L 1065.567138671875 -0.0004839656176045539 L 1065.567138671875 -0.0004839656176045539 L 1117.197021484375 51.629642486572266 L 1117.197021484375 51.629642486572266 L 1117.197021484375 277.409423828125 L 1117.197021484375 277.409423828125 L 1041.7615943719413 352.84524303900054" fill="none" stroke="#000000"/><path d="M 941.95703125 274.4794921875 L 991.85693359375 324.379638671875 L 991.85693359375 324.379638671875 L 1070.22705078125 324.379638671875" fill="none" stroke="#000000"/><path d="M 952.2626953125 629.4149780273438 L 1178.042724609375 629.4149780273438 L 1178.042724609375 629.4149780273438 L 1225.0126953125 676.3849487304688 L 1225.0126953125 676.3849487304688 L 1225.0126953125 772.73095703125 L 1225.0126953125 772.73095703125 L 1271.982666015625 819.700927734375 L 1271.982666015625 819.700927734375 L 1497.7626953125 819.700927734375" fill="none" stroke="#000000"/><path d="M 900.6326904296875 756.8449096679688 L 948.4427490234375 804.6549682617188 L 948.4427490234375 804.6549682617188 L 1175.1126708984375 804.6549682617188 L 1175.1126708984375 804.6549682617188 L 1225.0126953125 754.7550659179688" fill="none" stroke="#000000"/><path d="M 1041.7587890625 352.8424377441406 L 1041.7587890625 579.5123901367188 L 1041.7587890625 579.5123901367188 L 1091.658935546875 629.4125366210938" fill="none" stroke="#000000"/><path d="M 1133.08203125 272.7477111816406 L 1133.08203125 46.975677490234375 L 1133.08203125 46.975677490234375 L 1180.062255859375 -0.0002755390596576035 L 1180.062255859375 -0.0002755390596576035 L 1258.422119140625 -0.0002755390596576035 L 1258.422119140625 -0.0002755390596576035 L 1308.322021484375 49.901702880859375 L 1308.322021484375 49.901702880859375 L 1308.322021484375 287.79931640625" fill="none" stroke="#000000"/><path d="M 1345.26220703125 644.467041015625 L 1392.242431640625 597.487060546875 L 1392.242431640625 597.487060546875 L 1392.242431640625 371.717041015625 L 1392.242431640625 371.717041015625 L 1308.3239974739283 287.7988052592381" fill="none" stroke="#000000"/><path d="M 1549.3927001953125 768.071044921875 L 1549.3927001953125 692.27099609375 L 1549.3927001953125 692.27099609375 L 1501.5826416015625 644.4609375" fill="none" stroke="#000000"/><path d="M 1483.5634765625 290.729248046875 L 1483.5634765625 64.94945526123047 L 1483.5634765625 64.94945526123047 L 1431.933349609375 13.319330215454102 L 1431.933349609375 13.319330215454102 L 1356.13330078125 13.319330215454102 L 1356.13330078125 13.319330215454102 L 1308.323486328125 61.12938690185547" fill="none" stroke="#000000"/><path d="M 1358.223388671875 337.699462890625 L 1436.583251953125 337.699462890625 L 1436.583251953125 337.699462890625 L 1531.8776514149934 242.42536717595914" fill="none" stroke="#000000"/><path d="M 1716.6217041015625 517.0341796875 L 1668.8116455078125 469.224365234375 L 1668.8116455078125 469.224365234375 L 1442.1417236328125 469.224365234375 L 1442.1417236328125 469.224365234375 L 1392.24169921875 519.124267578125" fill="none" stroke="#000000"/><path d="M 1692.2474365234375 308.84814453125 L 1692.2474365234375 402.7982177734375 L 1692.2474365234375 402.7982177734375 L 1625.8173828125 469.2281494140625" fill="none" stroke="#000000"/><path d="M 1531.8704833984375 469.2281494140625 L 1465.4404296875 402.7982177734375 L 1465.4404296875 402.7982177734375 L 1465.4404296875 308.84814453125" fill="none" stroke="#000000"/><path d="M 1710.3697509765625 175.98777770996094 L 1710.3697509765625 82.03783416748047 L 1710.3697509765625 82.03783416748047 L 1643.939697265625 15.60789966583252 L 1643.939697265625 15.60789966583252 L 1549.9927978515625 15.60789966583252 L 1549.9927978515625 15.60789966583252 L 1483.562744140625 82.03783416748047" fill="none" stroke="#000000"/><path d="M 1810.5682373046875 819.6376342773438 L 1876.9981689453125 753.2075805664062 L 1876.9981689453125 753.2075805664062 L 1876.9981689453125 659.2606201171875 L 1876.9981689453125 659.2606201171875 L 1810.5682373046875 592.8306274414062 L 1810.5682373046875 592.8306274414062 L 1716.6180419921875 592.8306274414062" fill="none" stroke="#000000"/><path d="M 1650.1881103515625 659.2606201171875 L 1650.1881103515625 753.2075805664062 L 1650.1881103515625 753.2075805664062 L 1720.6247521769249 823.6443518247315" fill="none" stroke="#000000"/><path d="M 1842.229248046875 364.8785400390625 L 1908.6593017578125 298.4486083984375 L 1908.6593017578125 298.4486083984375 L 1908.6593017578125 204.5086669921875 L 1908.6593017578125 204.5086669921875 L 1842.229248046875 138.0784912109375 L 1842.229248046875 138.0784912109375 L 1748.2823486328125 138.0784912109375" fill="none" stroke="#000000"/><path d="M 1877.00244140625 364.8822021484375 L 1943.432373046875 431.3121337890625 L 1943.432373046875 431.3121337890625 L 1943.432373046875 525.2620849609375 L 1943.432373046875 525.2620849609375 L 1877.00244140625 591.6922607421875 L 1877.00244140625 591.6922607421875 L 1783.0523681640625 591.6922607421875 L 1783.0523681640625 591.6922607421875 L 1716.6224365234375 525.2620849609375" fill="none" stroke="#000000"/><path d="M 91.49806213378906 901.6644287109375 L 25.06812858581543 835.2342529296875 L 25.06812858581543 835.2342529296875 L 25.06812858581543 741.2943115234375 L 25.06812858581543 741.2943115234375 L 91.49806213378906 674.8643798828125" fill="none" stroke="#000000"/><path d="M 251.87818908691406 835.2342529296875 L 185.44801330566406 901.6644287109375 L 185.44801330566406 901.6644287109375 L 66.43112182617188 901.6644287109375" fill="none" stroke="#000000"/><path d="M 1720.6259765625 917.5933227539062 L 1654.196044921875 984.0232543945312 L 1654.196044921875 984.0232543945312 L 1560.24609375 984.0232543945312" fill="none" stroke="#000000"/><path d="M 1654.196044921875 757.2131958007812 L 1560.24609375 757.2131958007812 L 1560.24609375 757.2131958007812 L 1493.81591796875 823.6431274414062 L 1493.81591796875 823.6431274414062 L 1493.81591796875 917.5933227539062 L 1493.81591796875 917.5933227539062 L 1625.1580477545049 1048.9349698380986" fill="none" stroke="#000000"/><path d="M 947.1619873046875 1030.1756591796875 L 853.2120361328125 1030.1756591796875 L 853.2120361328125 1030.1756591796875 L 786.7818603515625 963.74560546875" fill="none" stroke="#000000"/><path d="M 853.2120361328125 803.36865234375 L 947.1619873046875 803.36865234375 L 947.1619873046875 803.36865234375 L 1013.5919189453125 869.7986450195312 L 1013.5919189453125 869.7986450195312 L 1013.5919189453125 965.0336303710938" fill="none" stroke="#000000"/><path d="M 1173.9656982421875 804.6537475585938 L 1240.3956298828125 871.0836791992188 L 1240.3956298828125 871.0836791992188 L 1240.3956298828125 980.081298828125" fill="none" stroke="#000000"/><path d="M 1240.3956298828125 965.0336303710938 L 1173.9656982421875 1031.4637451171875 L 1173.9656982421875 1031.4637451171875 L 1080.0157470703125 1031.4637451171875" fill="none" stroke="#000000"/><path d="M 720.3558349609375 1034.3857421875 L 626.4058837890625 1034.3857421875 L 626.4058837890625 1034.3857421875 L 559.9757080078125 967.9557495117188" fill="none" stroke="#000000"/><path d="M 626.4058837890625 807.5756225585938 L 559.9757080078125 874.0057983398438 L 559.9757080078125 874.0057983398438 L 559.9757080078125 979.7184448242188" fill="none" stroke="#000000"/><path d="M 399.6031494140625 819.3384399414062 L 333.1729736328125 885.7684936523438 L 333.1729736328125 885.7684936523438 L 333.1729736328125 979.7184448242188 L 333.1729736328125 979.7184448242188 L 434.5599694376473 1081.10516117001" fill="none" stroke="#000000"/><path d="M 1400.7740478515625 819.701416015625 L 1467.2041015625 886.13134765625 L 1467.2041015625 886.13134765625 L 1467.2041015625 980.081298828125 L 1467.2041015625 980.081298828125 L 1398.3530861534916 1048.9321877181185" fill="none" stroke="#000000"/><path d="M 1720.623291015625 980.0164794921875 L 1787.05322265625 1046.446533203125 L 1787.05322265625 1046.446533203125 L 1881.00341796875 1046.446533203125 L 1881.00341796875 1046.446533203125 L 1947.433349609375 980.0164794921875 L 1947.433349609375 980.0164794921875 L 1947.433349609375 886.0665283203125 L 1947.433349609375 886.0665283203125 L 1881.00341796875 819.636474609375" fill="none" stroke="#000000"/><path d="M 66.43112182617188 901.6646728515625 L 0.0011920968536287546 968.0946044921875 L 0.0011920968536287546 968.0946044921875 L 0.0011920968536287546 1062.0445556640625 L 0.0011920968536287546 1062.0445556640625 L 66.43112182617188 1128.4744873046875 L 66.43112182617188 1128.4744873046875 L 160.38119506835938 1128.4744873046875 L 160.38119506835938 1128.4744873046875 L 274.1776428222656 1014.6780395507812" fill="none" stroke="#000000"/><path d="M 160.38119506835938 901.6646728515625 L 226.81112670898438 968.0946044921875 L 226.81112670898438 968.0946044921875 L 226.81112670898438 1062.0445556640625" fill="none" stroke="#000000"/><path d="M 1625.1619873046875 1048.9310302734375 L 1625.1619873046875 1142.881103515625 L 1625.1619873046875 1142.881103515625 L 1558.73193359375 1209.31103515625 L 1558.73193359375 1209.31103515625 L 1464.781982421875 1209.31103515625 L 1464.781982421875 1209.31103515625 L 1398.3519287109375 1142.881103515625 L 1398.3519287109375 1142.881103515625 L 1398.3519287109375 1048.9310302734375" fill="none" stroke="#000000"/><path d="M 1126.3525390625 1171.739501953125 L 1059.922607421875 1238.16943359375 L 1059.922607421875 1238.16943359375 L 965.97265625 1238.16943359375 L 965.97265625 1238.16943359375 L 899.542724609375 1171.739501953125" fill="none" stroke="#000000"/><path d="M 434.5572204589844 1081.10791015625 L 434.5572204589844 1175.0478515625 L 434.5572204589844 1175.0478515625 L 368.1272888183594 1241.477783203125 L 368.1272888183594 1241.477783203125 L 274.1773376464844 1241.477783203125 L 274.1773376464844 1241.477783203125 L 207.74742126464844 1175.0478515625 L 207.74742126464844 1175.0478515625 L 207.74742126464844 1081.10791015625" fill="none" stroke="#000000"/><path d="M 899.546875 1082.0025634765625 L 833.116943359375 1015.5726928710938 L 833.116943359375 1015.5726928710938 L 739.1669921875 1015.5726928710938" fill="none" stroke="#000000"/><path d="M 899.546875 1175.9527587890625 L 833.116943359375 1242.3826904296875 L 833.116943359375 1242.3826904296875 L 739.1669921875 1242.3826904296875 L 739.1669921875 1242.3826904296875 L 672.737060546875 1175.9527587890625" fill="none" stroke="#000000"/><path d="M 1353.158203125 1092.8388671875 L 1353.158203125 1186.788818359375 L 1353.158203125 1186.788818359375 L 1286.728271484375 1253.218994140625 L 1286.728271484375 1253.218994140625 L 1192.7783203125 1253.218994140625 L 1192.7783203125 1253.218994140625 L 1126.348388671875 1186.788818359375" fill="none" stroke="#000000"/><path d="M 1126.348388671875 1092.8388671875 L 1192.7783203125 1026.408935546875 L 1192.7783203125 1026.408935546875 L 1286.728271484375 1026.408935546875" fill="none" stroke="#000000"/><path d="M 672.741455078125 1187.71240234375 L 606.3115234375 1254.1424560546875 L 606.3115234375 1254.1424560546875 L 512.361572265625 1254.1424560546875 L 512.361572265625 1254.1424560546875 L 445.931396484375 1187.71240234375 L 445.931396484375 1187.71240234375 L 445.931396484375 1093.762451171875" fill="none" stroke="#000000"/><path d="M 512.361572265625 1027.3323974609375 L 606.3115234375 1027.3323974609375 L 606.3115234375 1027.3323974609375 L 672.741455078125 1093.762451171875" fill="none" stroke="#000000"/><path d="M 674.86328125 584.5317993164062 L 674.86328125 357.86065673828125 L 674.86328125 357.86065673828125 L 591.4840030737529 274.477911054502" fill="none" stroke="#000000"/><path d="M 1216.998779296875 594.55712890625 L 1216.998779296875 356.6625061035156 L 1216.998779296875 356.6625061035156 L 1133.0832062197615 272.74653621743516" fill="none" stroke="#000000"/><path d="M 1650.191789961214 659.2642997181392 L 1716.6217041015625 592.834228515625 L 1716.6217041015625 592.834228515625 L 1716.6217041015625 431.3121337890625" fill="none" stroke="#000000"/></svg>